<?xml version="1.0" encoding="utf-8"?>
<!-- Generator: Adobe Illustrator 16.0.0, SVG Export Plug-In . SVG Version: 6.00 Build 0)  -->
<!DOCTYPE svg PUBLIC "-//W3C//DTD SVG 1.1//EN" "http://www.w3.org/Graphics/SVG/1.1/DTD/svg11.dtd">
<svg version="1.1" id="Layer_1" xmlns="http://www.w3.org/2000/svg" xmlns:xlink="http://www.w3.org/1999/xlink" x="0px" y="0px"
	 width="436.228px" height="78.996px" viewBox="63.274 102.263 436.228 78.996"
	 enable-background="new 63.274 102.263 436.228 78.996" xml:space="preserve">
<g>
	<polygon fill="#FFFFFF" points="120.744,151.283 131.889,151.283 131.857,127.731 119.726,102.263 107.531,102.263 
		120.744,129.812 	"/>
	<g>
		<polygon fill="#FFFFFF" points="174.189,133.042 162.295,102.263 151.234,102.263 151.234,105.495 168.795,151.146 
			174.238,133.167 		"/>
		<rect x="183.842" y="102.263" fill="#FFFFFF" width="11.146" height="49.02"/>
	</g>
	<g>
		<rect x="213.404" y="102.263" fill="#FFFFFF" width="11.144" height="49.02"/>
		<path fill="#FFFFFF" d="M231.975,102.441c4.984,1.92,7.344,7.109,7.344,15.932c0,3.81,0,13.29-6.031,15.173
			c5.281-0.15,15.823-2.089,15.823-15.173C249.11,109.169,242.92,103.496,231.975,102.441z"/>
	</g>
	<g>
		<path fill="#FFFFFF" d="M291.078,102.263c4.33,3.046,5.996,10.503,5.996,24.511c0,14.006-1.666,21.46-5.996,24.509
			c9.359-3.02,17.926-12.519,17.926-24.509C309.003,114.784,300.438,105.282,291.078,102.263z"/>
		<path fill="#FFFFFF" d="M272.764,126.774c0-14.008,1.671-21.465,6-24.511c-9.359,3.019-17.925,12.521-17.925,24.511
			c0,11.99,8.565,21.489,17.925,24.509C274.435,148.236,272.764,140.78,272.764,126.774z"/>
	</g>
	<g>
		<path fill="#FFFFFF" d="M82.065,120.344c-6.02-2.55-11.703-4.963-11.703-11.045c0-2.676,0.941-5.469,3.334-7.036
			c-6.385,1.69-10.422,6.868-10.422,13.933c0,8.768,7.399,11.851,14.553,14.83c6.832,2.85,13.286,5.539,13.286,12.824
			c0,2.214-0.542,5.358-3.2,7.433c5.688-2.474,9.434-7.703,9.434-14.044C97.347,126.823,89.228,123.381,82.065,120.344z"/>
		<path fill="#FFFFFF" d="M95.29,117.251v-14.988c0,0-10.778,0.045-10.877,0C87.566,104.617,93.515,109.938,95.29,117.251z"/>
		<path fill="#FFFFFF" d="M63.633,133.948v17.335h12.903C71.341,147.626,65.161,140.042,63.633,133.948z"/>
	</g>
	<g>
		<path fill="#FFFFFF" d="M341.815,120.344c-6.021-2.55-11.703-4.963-11.703-11.045c0-2.676,0.941-5.469,3.334-7.036
			c-6.385,1.69-10.422,6.868-10.422,13.933c0,8.768,7.399,11.851,14.554,14.83c6.832,2.85,13.285,5.539,13.285,12.824
			c0,2.214-0.541,5.358-3.199,7.433c5.688-2.474,9.434-7.703,9.434-14.044C357.097,126.823,348.978,123.381,341.815,120.344z"/>
		<path fill="#FFFFFF" d="M355.041,117.251v-14.988c0,0-10.778,0.045-10.877,0C347.316,104.617,353.265,109.938,355.041,117.251z"/>
		<path fill="#FFFFFF" d="M323.382,133.948v17.335h12.904C331.091,147.626,324.912,140.042,323.382,133.948z"/>
	</g>
	<rect x="372.729" y="102.263" fill="#FFFFFF" width="11.146" height="49.02"/>
	<path fill="#FFFFFF" d="M413.07,137.538v-35.274h-11.148v33.042c0,12.752,9.65,15.783,18.133,15.979
		c0.166,0.004,0.141-0.027-0.025-0.065C414.322,149.898,413.07,144.652,413.07,137.538z"/>
	<path fill="#FFFFFF" d="M431.253,137.538v-35.274h11.148v33.042c0,12.752-9.65,15.783-18.133,15.979
		c-0.164,0.004-0.141-0.027,0.025-0.065C430.001,149.898,431.253,144.652,431.253,137.538z"/>
	<g>
		<polygon fill="#FFFFFF" points="478.707,133.042 466.81,102.263 455.75,102.263 455.75,105.495 473.31,151.146 478.753,133.167 		
			"/>
		<rect x="488.357" y="102.263" fill="#FFFFFF" width="11.145" height="49.02"/>
	</g>
</g>
<g>
	<path fill="#FFFFFF" d="M100.676,179.085c0.287,0.498,0.661,0.867,1.12,1.111c0.459,0.243,0.981,0.365,1.568,0.365
		c0.365,0,0.708-0.057,1.029-0.166c0.321-0.111,0.601-0.266,0.838-0.465c0.238-0.199,0.426-0.439,0.564-0.723
		c0.139-0.281,0.208-0.601,0.208-0.955c0-0.408-0.086-0.746-0.258-1.012c-0.172-0.267-0.401-0.484-0.688-0.656
		c-0.288-0.172-0.611-0.317-0.971-0.439c-0.36-0.121-0.73-0.242-1.112-0.365c-0.382-0.121-0.753-0.26-1.112-0.414
		c-0.359-0.154-0.684-0.356-0.971-0.605c-0.288-0.249-0.518-0.563-0.689-0.938s-0.257-0.841-0.257-1.395
		c0-0.521,0.102-0.981,0.307-1.386c0.205-0.405,0.481-0.742,0.83-1.014s0.75-0.476,1.203-0.613c0.454-0.14,0.93-0.207,1.428-0.207
		c0.642,0,1.236,0.112,1.784,0.34c0.548,0.227,1.021,0.604,1.42,1.137l-0.946,0.682c-0.277-0.389-0.601-0.679-0.972-0.871
		c-0.37-0.195-0.811-0.291-1.319-0.291c-0.354,0-0.691,0.047-1.013,0.142c-0.32,0.094-0.6,0.231-0.838,0.415
		c-0.238,0.183-0.429,0.412-0.572,0.688c-0.145,0.277-0.216,0.604-0.216,0.979c0,0.587,0.149,1.038,0.448,1.353
		c0.298,0.315,0.672,0.564,1.12,0.747c0.448,0.183,0.935,0.343,1.461,0.481c0.525,0.139,1.012,0.324,1.46,0.557
		c0.448,0.232,0.822,0.557,1.121,0.971c0.299,0.414,0.448,0.987,0.448,1.719c0,0.531-0.1,1-0.299,1.41
		c-0.199,0.41-0.468,0.756-0.806,1.037c-0.338,0.282-0.728,0.496-1.17,0.639c-0.442,0.146-0.902,0.218-1.378,0.218
		c-0.774,0-1.488-0.138-2.141-0.407c-0.653-0.271-1.212-0.729-1.677-1.369L100.676,179.085z"/>
	<path fill="#FFFFFF" d="M145.393,170.503h-4.017v-0.996h9.129v0.996h-4.017v10.756h-1.096L145.393,170.503L145.393,170.503z"/>
	<path fill="#FFFFFF" d="M184.748,175.382c0-0.896,0.149-1.721,0.448-2.473c0.299-0.752,0.714-1.402,1.245-1.949
		c0.53-0.549,1.17-0.978,1.917-1.287c0.747-0.311,1.568-0.465,2.465-0.465c0.897,0,1.718,0.154,2.465,0.465s1.386,0.738,1.917,1.287
		c0.531,0.547,0.946,1.197,1.245,1.949c0.299,0.752,0.448,1.576,0.448,2.473c0,0.897-0.149,1.726-0.448,2.482
		c-0.299,0.758-0.714,1.41-1.245,1.958c-0.531,0.548-1.17,0.974-1.917,1.278c-0.747,0.304-1.568,0.457-2.465,0.457
		c-0.897,0-1.718-0.152-2.465-0.457s-1.387-0.73-1.917-1.278c-0.531-0.548-0.946-1.2-1.245-1.958
		C184.897,177.107,184.748,176.28,184.748,175.382z M185.844,175.382c0,0.73,0.116,1.412,0.349,2.043
		c0.232,0.631,0.564,1.179,0.995,1.644c0.432,0.466,0.955,0.83,1.569,1.097c0.614,0.266,1.303,0.397,2.066,0.397
		c0.763,0,1.452-0.133,2.066-0.397c0.614-0.266,1.137-0.631,1.568-1.097c0.431-0.465,0.764-1.013,0.996-1.644
		s0.349-1.313,0.349-2.043c0-0.729-0.116-1.409-0.349-2.041c-0.233-0.631-0.564-1.178-0.996-1.644
		c-0.432-0.465-0.954-0.829-1.568-1.095c-0.614-0.266-1.303-0.398-2.066-0.398c-0.763,0-1.452,0.133-2.066,0.398
		c-0.614,0.266-1.138,0.63-1.569,1.095c-0.431,0.466-0.763,1.013-0.995,1.644C185.961,173.973,185.844,174.653,185.844,175.382z"/>
	<path fill="#FFFFFF" d="M242.229,179.417c-0.564,0.763-1.218,1.312-1.959,1.644s-1.543,0.498-2.406,0.498
		c-0.896,0-1.718-0.151-2.465-0.457s-1.387-0.729-1.917-1.278c-0.531-0.548-0.946-1.199-1.245-1.957
		c-0.299-0.759-0.448-1.587-0.448-2.482c0-0.896,0.149-1.721,0.448-2.473c0.299-0.752,0.714-1.402,1.245-1.951
		c0.53-0.547,1.17-0.977,1.917-1.285c0.747-0.312,1.568-0.465,2.465-0.465c0.797,0,1.541,0.141,2.232,0.422
		c0.691,0.283,1.297,0.756,1.817,1.42l-0.896,0.746c-0.365-0.553-0.832-0.957-1.402-1.211c-0.57-0.254-1.153-0.381-1.751-0.381
		c-0.764,0-1.452,0.133-2.066,0.397c-0.614,0.265-1.138,0.63-1.569,1.095s-0.763,1.014-0.995,1.645s-0.349,1.311-0.349,2.041
		c0,0.729,0.116,1.412,0.349,2.042c0.232,0.631,0.564,1.179,0.995,1.644c0.432,0.465,0.955,0.83,1.569,1.096
		c0.614,0.267,1.303,0.398,2.066,0.398c0.299,0,0.608-0.036,0.93-0.107c0.32-0.071,0.633-0.184,0.938-0.332
		c0.305-0.149,0.595-0.338,0.871-0.563c0.276-0.228,0.521-0.502,0.73-0.822L242.229,179.417z"/>
	<path fill="#FFFFFF" d="M277.437,169.507h1.096v5.179h0.1l5.695-5.179h1.51l-5.943,5.377l6.275,6.375h-1.576l-5.96-6.075h-0.1
		v6.075h-1.096V169.507L277.437,169.507z"/>
	<path fill="#FFFFFF" d="M320.776,169.507h1.097v5.179h6.571v-5.179h1.097v11.752h-1.097v-5.577h-6.571v5.577h-1.097V169.507z"/>
	<path fill="#FFFFFF" d="M365.194,175.382c0-0.896,0.149-1.721,0.448-2.473s0.714-1.402,1.245-1.949
		c0.53-0.549,1.17-0.978,1.917-1.287c0.746-0.311,1.568-0.465,2.465-0.465s1.718,0.154,2.465,0.465s1.387,0.738,1.917,1.287
		c0.531,0.547,0.946,1.197,1.245,1.949s0.447,1.576,0.447,2.473c0,0.897-0.148,1.726-0.447,2.482
		c-0.299,0.758-0.714,1.41-1.245,1.958c-0.53,0.548-1.17,0.974-1.917,1.278c-0.747,0.304-1.568,0.457-2.465,0.457
		s-1.719-0.152-2.465-0.457c-0.747-0.305-1.387-0.73-1.917-1.278c-0.531-0.548-0.946-1.2-1.245-1.958
		S365.194,176.28,365.194,175.382z M366.291,175.382c0,0.73,0.115,1.412,0.349,2.043c0.231,0.631,0.563,1.179,0.995,1.644
		c0.432,0.466,0.955,0.83,1.568,1.097c0.614,0.266,1.303,0.397,2.066,0.397s1.452-0.133,2.066-0.397
		c0.613-0.266,1.137-0.631,1.567-1.097c0.431-0.465,0.765-1.013,0.996-1.644s0.349-1.313,0.349-2.043
		c0-0.729-0.115-1.409-0.349-2.041c-0.233-0.631-0.563-1.178-0.996-1.644c-0.432-0.465-0.954-0.829-1.567-1.095
		c-0.614-0.266-1.303-0.398-2.066-0.398s-1.452,0.133-2.066,0.398c-0.613,0.266-1.138,0.63-1.568,1.095
		c-0.432,0.466-0.764,1.013-0.995,1.644C366.408,173.973,366.291,174.653,366.291,175.382z"/>
	<path fill="#FFFFFF" d="M413,169.507h1.096v10.757h5.479v0.995H413V169.507L413,169.507z"/>
	<path fill="#FFFFFF" d="M454.38,169.507h1.643l4.283,9.859l4.281-9.859h1.563v11.752h-1.098v-10.356h-0.033l-4.48,10.356h-0.48
		l-4.549-10.356h-0.033v10.356h-1.096V169.507L454.38,169.507z"/>
</g>
</svg>
